<svg width="97" height="100" viewBox="0 0 97 100" fill="none" xmlns="http://www.w3.org/2000/svg">
<g clip-path="url(#clip0_221_200)">
<path d="M96.242 83.3333C96.242 92.5 89.0238 100 80.2016 100H16.0403C7.21815 100 0 92.5 0 83.3333V16.6667C0 7.5 7.21815 0 16.0403 0H80.2016C89.0238 0 96.242 7.5 96.242 16.6667V83.3333Z" fill="#563D7C"/>
<path d="M26.1523 21.7322H53.4366C58.4689 21.7322 62.5104 22.925 65.5455 25.3269C68.5806 27.7289 70.106 31.34 70.106 36.193C70.106 39.1341 69.4141 41.6505 68.0302 43.742C66.6463 45.8335 64.6649 47.4675 62.0858 48.6113V48.7747C65.5455 49.5426 68.1717 51.242 69.9487 53.8727C71.7258 56.5198 72.6221 59.8204 72.6221 63.8073C72.6221 66.0949 72.229 68.2354 71.4427 70.2126C70.6564 72.206 69.4298 73.9217 67.7471 75.3596C66.0645 76.7975 63.9257 77.9413 61.2995 78.791C58.6733 79.6407 55.5596 80.0655 51.9427 80.0655H26.1523V21.7322ZM35.981 46.1603H52.0213C54.3802 46.1603 56.3459 45.474 57.9185 44.0688C59.4911 42.6636 60.2774 40.6701 60.2774 38.0557C60.2774 35.1145 59.5697 33.0394 58.1544 31.8466C56.739 30.6537 54.6947 30.0492 52.0213 30.0492H35.981V46.1603ZM35.981 71.7322H53.358C56.3459 71.7322 58.6733 70.9315 60.3088 69.3139C61.96 67.7126 62.7935 65.425 62.7935 62.4838C62.7935 59.5917 61.9757 57.3858 60.3088 55.8171C58.6419 54.2485 56.3459 53.4969 53.358 53.4969H35.981V71.7322Z" fill="white"/>
</g>
<defs>
<clipPath id="clip0_221_200">
<rect width="96.242" height="100" fill="white"/>
</clipPath>
</defs>
</svg>
