<svg width="97" height="100" viewBox="0 0 97 100" fill="none" xmlns="http://www.w3.org/2000/svg">
<path d="M0 0H96.242V100H0V0Z" fill="#F7DF1E"/>
<path d="M25.3048 83.567L32.6699 78.9358C34.0908 81.5534 35.3834 83.7682 38.4837 83.7682C41.4556 83.7682 43.3293 82.5602 43.3293 77.8618V45.9094H52.3736V77.9947C52.3736 87.728 46.8826 92.1583 38.8714 92.1583C31.6363 92.1583 27.4365 88.2648 25.3047 83.5662" fill="white"/>
<path d="M57.2871 82.5604L64.6513 78.13C66.5899 81.4196 69.1094 83.8359 73.5668 83.8359C77.3143 83.8359 79.704 81.8891 79.704 79.204C79.704 75.9819 77.2492 74.8407 73.1145 72.9618L70.854 71.9542C64.3287 69.0683 60.0001 65.4435 60.0001 57.791C60.0001 50.7428 65.1683 45.3724 73.244 45.3724C78.9938 45.3724 83.1284 47.4535 86.0998 52.8908L79.058 57.5894C77.5074 54.7032 75.8282 53.5623 73.2442 53.5623C70.5954 53.5623 68.9156 55.3075 68.9156 57.5894C68.9156 60.4088 70.5954 61.5502 74.4712 63.2956L76.7321 64.3024C84.42 67.7261 88.7486 71.2162 88.7486 79.0697C88.7486 87.5281 82.353 92.1594 73.7608 92.1594C65.3624 92.1594 59.9356 87.9978 57.2873 82.5604" fill="white"/>
</svg>
