<svg width="85" height="83" viewBox="0 0 85 83" fill="none" xmlns="http://www.w3.org/2000/svg">
<path d="M27.6692 75.4065C27.5877 75.6919 27.6201 75.9516 27.7664 76.1854C27.9128 76.4192 28.163 76.6063 28.517 76.7464C28.7576 76.8417 28.9742 76.8881 29.1669 76.8856C29.3586 76.8854 29.5221 76.8438 29.6573 76.7608C29.7903 76.6769 29.8864 76.5601 29.9458 76.4103C29.9997 76.2872 30.0167 76.168 29.9968 76.0525C29.9747 75.936 29.926 75.8236 29.8508 75.715C29.7748 75.6088 29.6797 75.5042 29.5655 75.4012C29.4505 75.3006 29.3237 75.2031 29.1851 75.1088L28.618 74.711C28.3408 74.5225 28.0976 74.3212 27.8883 74.1071C27.6791 73.893 27.5142 73.6662 27.3937 73.4269C27.2732 73.1875 27.2063 72.9352 27.1931 72.6701C27.1777 72.4041 27.2264 72.1254 27.3391 71.834C27.5103 71.4082 27.7657 71.0814 28.1053 70.8535C28.4418 70.627 28.8462 70.5075 29.3185 70.495C29.7876 70.4838 30.3058 70.5906 30.8732 70.8152C31.4361 71.0381 31.8922 71.3184 32.2415 71.6563C32.5885 71.9932 32.812 72.377 32.9119 72.8078C33.0086 73.2399 32.9633 73.7089 32.7761 74.215L31.3496 73.6502C31.4263 73.4102 31.4366 73.1885 31.3806 72.9852C31.3214 72.7832 31.2077 72.603 31.0394 72.4444C30.868 72.2873 30.6552 72.1584 30.401 72.0578C30.1513 71.9589 29.9202 71.9094 29.7076 71.9093C29.4927 71.9082 29.3086 71.9521 29.1553 72.0411C29.0019 72.13 28.892 72.2584 28.8255 72.4264C28.7635 72.583 28.7579 72.7331 28.8087 72.8766C28.8573 73.0192 28.9552 73.163 29.1026 73.308C29.2477 73.4521 29.4352 73.6051 29.6652 73.767L30.3489 74.2582C30.8801 74.634 31.2557 75.0413 31.4757 75.4802C31.6958 75.9191 31.7027 76.3957 31.4964 76.91C31.3315 77.3331 31.0732 77.6574 30.7213 77.883C30.3672 78.1077 29.9553 78.2295 29.4858 78.2484C29.0162 78.2673 28.5273 78.1761 28.0189 77.9748C27.5014 77.7699 27.0848 77.5026 26.769 77.1728C26.451 76.8421 26.2467 76.4763 26.156 76.0755C26.0653 75.6746 26.0987 75.2652 26.2564 74.8472L27.6692 75.4065Z" fill="white"/>
<path d="M24.4812 67.3582C24.7715 67.5691 24.9936 67.8075 25.1475 68.0732C25.3 68.3409 25.37 68.6225 25.3574 68.9181C25.3414 69.2142 25.2243 69.5124 25.0062 69.8126C24.8226 70.0653 24.6219 70.2439 24.4043 70.3483C24.1866 70.4527 23.9598 70.4991 23.7238 70.4875C23.4878 70.476 23.2487 70.423 23.0066 70.3285C22.7625 70.2326 22.5199 70.1137 22.279 69.9719C21.9943 69.8073 21.7624 69.678 21.5832 69.584C21.4026 69.4921 21.2579 69.4442 21.1489 69.4405C21.04 69.4368 20.9504 69.4833 20.8801 69.5801L20.8671 69.5978C20.7308 69.7854 20.6846 69.9736 20.7285 70.1624C20.7704 70.3498 20.899 70.5216 21.1143 70.678C21.3414 70.843 21.5586 70.924 21.7661 70.9208C21.9721 70.9196 22.1514 70.8598 22.3039 70.7413L23.4021 71.684C23.142 71.9175 22.8519 72.0718 22.5318 72.1469C22.2102 72.2241 21.8727 72.2172 21.5193 72.1264C21.1625 72.0361 20.8024 71.859 20.439 71.595C20.1862 71.4113 19.9658 71.2059 19.7778 70.9788C19.5878 70.7503 19.4482 70.5085 19.3589 70.2535C19.2676 69.9971 19.2406 69.7331 19.278 69.4616C19.3139 69.192 19.4302 68.9219 19.6268 68.6514L21.8564 65.5825L23.0532 66.452L22.5948 67.0829L22.6303 67.1088C22.8067 67.0197 22.9955 66.9653 23.1969 66.9456C23.3968 66.9279 23.6049 66.9509 23.8212 67.0145C24.0361 67.0801 24.2561 67.1947 24.4812 67.3582ZM23.4871 67.9666C23.3014 67.8317 23.111 67.7491 22.9157 67.7189C22.719 67.6906 22.5342 67.7103 22.3614 67.7779C22.1886 67.8454 22.0441 67.9592 21.9279 68.1191L21.5771 68.602C21.6352 68.605 21.7068 68.6208 21.7917 68.6493C21.8732 68.6783 21.9628 68.7148 22.0607 68.7587C22.1571 68.8046 22.2527 68.8515 22.3477 68.8994C22.4412 68.9492 22.5261 68.9943 22.6024 69.0346C22.7663 69.1205 22.9208 69.1799 23.0658 69.2129C23.2108 69.2459 23.3434 69.2441 23.4634 69.2076C23.582 69.1731 23.6844 69.0966 23.7705 68.9781C23.8953 68.8063 23.9285 68.6298 23.8701 68.4485C23.8083 68.2678 23.6806 68.1072 23.4871 67.9666Z" fill="white"/>
<path d="M18.9003 62.5303L14.5668 66.1153L13.6029 64.9501L14.359 64.3246L14.3216 64.2795C13.9873 64.423 13.6745 64.4584 13.3832 64.3858C13.0899 64.3147 12.843 64.1579 12.6422 63.9153C12.5924 63.8551 12.5425 63.7871 12.4925 63.7113C12.4424 63.6354 12.4022 63.5658 12.3718 63.5022L13.4382 62.62C13.468 62.6904 13.5175 62.7809 13.5868 62.8915C13.6561 63.002 13.725 63.0987 13.7935 63.1815C13.9397 63.3583 14.109 63.4844 14.3012 63.5598C14.4901 63.6348 14.6856 63.6568 14.888 63.6256C15.0887 63.5926 15.2775 63.5029 15.4543 63.3567L17.906 61.3285L18.9003 62.5303Z" fill="white"/>
<path d="M14.3028 55.4564C14.4556 55.7811 14.5354 56.0969 14.5423 56.4039C14.547 56.712 14.4726 56.9925 14.3191 57.2454C14.1624 57.4972 13.9162 57.7021 13.5805 57.8601C13.2978 57.9931 13.0359 58.053 12.7949 58.0396C12.5539 58.0262 12.3328 57.9576 12.1316 57.8338C11.9303 57.7099 11.7463 57.5483 11.5796 57.3489C11.4119 57.1472 11.2567 56.9262 11.1139 56.6859C10.9437 56.4045 10.8027 56.1794 10.691 56.0108C10.5771 55.8432 10.4733 55.7315 10.3796 55.6758C10.2859 55.62 10.185 55.6176 10.0767 55.6686L10.0569 55.6779C9.84703 55.7766 9.71587 55.9193 9.66338 56.1059C9.60984 56.2902 9.63972 56.5028 9.75301 56.7435C9.87253 56.9975 10.024 57.1731 10.2073 57.2703C10.3884 57.3685 10.5743 57.4024 10.765 57.372L11.2733 58.7273C10.9329 58.8065 10.6043 58.802 10.2875 58.7136C9.96858 58.6263 9.67613 58.4577 9.41018 58.2079C9.14098 57.9569 8.91077 57.6282 8.71953 57.2218C8.58649 56.939 8.4923 56.6529 8.43696 56.3633C8.38058 56.0715 8.37468 55.7923 8.41924 55.5259C8.46277 55.2572 8.56633 55.0129 8.72991 54.7929C8.89127 54.574 9.12325 54.3933 9.42585 54.2509L12.8582 52.6358L13.488 53.9743L12.7823 54.3064L12.801 54.3461C12.9985 54.353 13.1902 54.3963 13.3762 54.4761C13.5599 54.5569 13.7312 54.6773 13.8901 54.8372C14.0467 54.9982 14.1843 55.2046 14.3028 55.4564ZM13.1386 55.5106C13.0409 55.3029 12.9137 55.1388 12.7572 55.0183C12.5984 54.8987 12.4271 54.827 12.2431 54.8029C12.0591 54.7789 11.8777 54.809 11.6988 54.8931L11.1587 55.1473C11.2082 55.1779 11.2633 55.2262 11.324 55.2921C11.3814 55.3568 11.4424 55.4319 11.507 55.5175C11.5694 55.6042 11.6306 55.6914 11.6908 55.7791C11.7487 55.8678 11.8014 55.9482 11.8488 56.0204C11.9511 56.1746 12.0578 56.3011 12.169 56.3998C12.2802 56.4985 12.3972 56.5608 12.52 56.5867C12.6405 56.6136 12.7671 56.5959 12.8996 56.5335C13.0918 56.4431 13.2059 56.3044 13.242 56.1174C13.2749 55.9293 13.2404 55.727 13.1386 55.5106Z" fill="white"/>
<path d="M8.46494 48.7325L11.6588 48.1232L11.9511 49.6554L4.58506 51.0606L4.30101 49.5715L7.11722 49.0343L7.10487 48.9696C6.75499 48.9071 6.4612 48.7544 6.22351 48.5115C5.98342 48.269 5.82336 47.938 5.74331 47.5184C5.67013 47.1347 5.69024 46.7842 5.80366 46.4669C5.91422 46.1476 6.11026 45.8791 6.39178 45.6613C6.67045 45.4417 7.02582 45.2919 7.45788 45.212L10.9754 44.5409L11.2677 46.0731L8.02351 46.692C7.68256 46.7546 7.43407 46.8914 7.27804 47.1026C7.12154 47.3114 7.07303 47.5716 7.13249 47.8833C7.17229 48.0919 7.25187 48.2681 7.37123 48.4118C7.49014 48.5532 7.6434 48.6531 7.83103 48.7118C8.0158 48.7685 8.2271 48.7754 8.46494 48.7325Z" fill="white"/>
<path d="M4.30515 32.8699L4.90936 31.0103L10.3392 30.6032L10.3664 30.5196L6.21283 26.9986L6.81704 25.1391L13.9489 27.4563L13.4736 28.9189L8.83169 27.4107L8.81245 27.4699L12.8199 30.8124L12.4963 31.8084L7.27207 32.1514L7.25283 32.2106L11.9122 33.7245L11.437 35.1871L4.30515 32.8699Z" fill="white"/>
<path d="M16.2112 24.3759C15.9065 24.8561 15.5409 25.2067 15.1145 25.4276C14.6873 25.6451 14.2302 25.7323 13.743 25.6891C13.2537 25.6445 12.7659 25.468 12.2795 25.1593C11.789 24.848 11.4204 24.4811 11.1739 24.0587C10.9253 23.6349 10.8095 23.1842 10.8265 22.7064C10.8428 22.2252 11.0033 21.7445 11.308 21.2643C11.6128 20.7841 11.9787 20.4352 12.4059 20.2177C12.8323 19.9968 13.2901 19.9086 13.7794 19.9531C14.2666 19.9963 14.7554 20.1736 15.246 20.4849C15.7324 20.7935 16.0999 21.1597 16.3485 21.5835C16.595 22.0059 16.7101 22.4577 16.6939 22.9389C16.6769 23.4167 16.516 23.8957 16.2112 24.3759ZM15.1949 23.7223C15.3336 23.5038 15.3875 23.2822 15.3567 23.0574C15.3239 22.8313 15.2228 22.6124 15.0534 22.4009C14.8854 22.1873 14.6633 21.9929 14.3872 21.8176C14.111 21.6423 13.8405 21.5242 13.5757 21.4631C13.3122 21.3999 13.0712 21.4017 12.8526 21.4682C12.634 21.5347 12.4554 21.6773 12.3167 21.8957C12.1768 22.1163 12.1219 22.3416 12.1521 22.5719C12.1837 22.8001 12.2835 23.0209 12.4515 23.2345C12.6208 23.4461 12.8436 23.6395 13.1197 23.8147C13.3959 23.99 13.6658 24.1092 13.9292 24.1724C14.1941 24.2334 14.4364 24.2297 14.6563 24.1611C14.8754 24.0891 15.055 23.9428 15.1949 23.7223Z" fill="white"/>
<path d="M17.6389 17.2067L19.8647 19.5769L18.7276 20.6447L14.8776 16.5449L15.9613 15.5272L16.6406 16.2506L16.6886 16.2054C16.5555 15.8818 16.5305 15.5503 16.6137 15.211C16.6952 14.8699 16.8881 14.5565 17.1924 14.2707C17.4771 14.0034 17.7838 13.8325 18.1125 13.7582C18.4412 13.684 18.7729 13.7073 19.1076 13.8284C19.4406 13.9476 19.7567 14.1665 20.0558 14.485L22.5071 17.0955L21.3701 18.1632L19.1092 15.7557C18.8754 15.5031 18.6275 15.3675 18.3656 15.3489C18.102 15.3285 17.8564 15.4253 17.6286 15.6392C17.4756 15.7829 17.3712 15.9428 17.3156 16.1189C17.2618 16.2934 17.2613 16.4747 17.3141 16.6629C17.367 16.8476 17.4753 17.0289 17.6389 17.2067Z" fill="white"/>
<path d="M26.7392 7.8265L27.3036 8.85326L24.3356 10.4849L23.7712 9.45816L26.7392 7.8265ZM23.7958 7.90695L25.1627 7.15551L27.6887 11.7503C27.7581 11.8765 27.8314 11.9643 27.9088 12.0137C27.9849 12.061 28.0648 12.0797 28.1486 12.0699C28.2344 12.0589 28.3234 12.0281 28.4154 11.9776C28.4795 11.9423 28.5408 11.9017 28.599 11.8557C28.6562 11.8076 28.7001 11.7709 28.7308 11.7457L29.5049 12.6446C29.4482 12.7036 29.3655 12.7812 29.2567 12.8772C29.1491 12.9753 29.0083 13.0764 28.8343 13.1804C28.5119 13.3744 28.199 13.4893 27.8956 13.5251C27.5944 13.5598 27.3171 13.5089 27.0637 13.3724C26.8104 13.2359 26.596 13.0056 26.4206 12.6814L23.7958 7.90695Z" fill="white"/>
<path d="M34.6639 8.53297L33.8608 5.40494L35.3716 5.01703L36.7703 10.4645L35.3197 10.8369L35.0657 9.84743L35.0089 9.862C34.9679 10.2128 34.8293 10.5218 34.593 10.7891C34.359 11.0558 34.0376 11.2417 33.6285 11.3467C33.2644 11.4402 32.9228 11.4397 32.6037 11.3453C32.2846 11.2508 32.0078 11.0711 31.7735 10.8061C31.5415 10.5406 31.3697 10.1953 31.258 9.77036L30.3675 6.30188L31.8783 5.91396L32.6996 9.11292C32.7845 9.43386 32.9361 9.66587 33.1543 9.80894C33.3725 9.95202 33.6246 9.98683 33.9107 9.91338C34.0928 9.86663 34.2524 9.78155 34.3895 9.65812C34.5261 9.53233 34.6216 9.37424 34.676 9.18385C34.7328 8.99285 34.7288 8.77589 34.6639 8.53297Z" fill="white"/>
<path d="M42.056 10.1062C41.6971 10.1062 41.3774 10.0439 41.0966 9.91945C40.8159 9.79251 40.5938 9.60577 40.4302 9.35923C40.2691 9.11024 40.1886 8.80023 40.1886 8.4292C40.1886 8.11675 40.2459 7.85433 40.3607 7.64196C40.4754 7.4296 40.6316 7.25872 40.8293 7.12935C41.0271 6.99997 41.2516 6.90233 41.5031 6.83642C41.7569 6.77052 42.023 6.72414 42.3013 6.69729C42.6284 6.66311 42.892 6.63138 43.0922 6.60209C43.2923 6.57035 43.4376 6.52397 43.5279 6.46295C43.6182 6.40192 43.6634 6.3116 43.6634 6.19199V6.17002C43.6634 5.93813 43.5902 5.75871 43.4437 5.63178C43.2997 5.50484 43.0946 5.44138 42.8286 5.44138C42.5478 5.44138 42.3245 5.50362 42.1585 5.62811C41.9925 5.75017 41.8827 5.90395 41.8289 6.08947L40.3863 5.9723C40.4595 5.63056 40.6036 5.33519 40.8184 5.08621C41.0332 4.83478 41.3102 4.64194 41.6495 4.50768C41.9913 4.37098 42.3867 4.30264 42.8359 4.30264C43.1483 4.30264 43.4474 4.33925 43.733 4.41248C44.021 4.48571 44.2761 4.59922 44.4982 4.753C44.7228 4.90679 44.8998 5.10451 45.0291 5.34618C45.1585 5.5854 45.2232 5.87222 45.2232 6.20664V10H43.7439V9.22009H43.7C43.6097 9.39584 43.4888 9.55085 43.3375 9.68511C43.1862 9.81692 43.0043 9.92067 42.7919 9.99634C42.5796 10.0696 42.3342 10.1062 42.056 10.1062ZM42.5027 9.02969C42.7321 9.02969 42.9347 8.98453 43.1105 8.89421C43.2862 8.80145 43.4242 8.67696 43.5242 8.52074C43.6243 8.36451 43.6744 8.18753 43.6744 7.98981V7.39298C43.6255 7.42471 43.5584 7.45401 43.473 7.48086C43.39 7.50527 43.296 7.52846 43.191 7.55043C43.0861 7.56995 42.9811 7.58826 42.8762 7.60535C42.7712 7.62 42.676 7.63342 42.5906 7.64563C42.4075 7.67248 42.2476 7.7152 42.1109 7.77378C41.9742 7.83236 41.868 7.9117 41.7923 8.01178C41.7167 8.10942 41.6788 8.23147 41.6788 8.37794C41.6788 8.5903 41.7557 8.75263 41.9095 8.86492C42.0657 8.97477 42.2635 9.02969 42.5027 9.02969Z" fill="white"/>
<path d="M49.7973 7.47405L48.9887 10.6234L47.4779 10.2354L48.8765 4.788L50.3164 5.1577L50.0697 6.11881L50.1335 6.1352C50.3354 5.84934 50.6019 5.65062 50.933 5.53905C51.2647 5.42511 51.6327 5.42005 52.037 5.52386C52.4153 5.62098 52.7238 5.78842 52.9627 6.02617C53.2016 6.26391 53.3596 6.5565 53.4367 6.90393C53.5144 7.24899 53.499 7.63313 53.3903 8.05635L52.4997 11.5248L50.9889 11.1369L51.8103 7.93797C51.8982 7.60521 51.8799 7.32328 51.7553 7.09218C51.6312 6.85872 51.4179 6.70313 51.1153 6.62543C50.9119 6.57322 50.721 6.57083 50.5425 6.61824C50.3663 6.66626 50.213 6.76298 50.0824 6.90838C49.9548 7.05203 49.8598 7.24059 49.7973 7.47405Z" fill="white"/>
<path d="M56.4521 13.1735L59.1616 8.24504L60.5284 8.99649L57.819 13.925L56.4521 13.1735ZM60.1975 7.98722C59.9942 7.8755 59.857 7.71228 59.7856 7.49755C59.7175 7.28186 59.7358 7.07882 59.8405 6.88844C59.944 6.7002 60.1044 6.5781 60.3218 6.52212C60.5426 6.46519 60.7545 6.49258 60.9577 6.6043C61.1609 6.71601 61.2966 6.87972 61.3646 7.09541C61.436 7.31014 61.42 7.51162 61.3165 7.69986C61.2118 7.89024 61.0491 8.0139 60.8284 8.07084C60.611 8.12681 60.4007 8.09894 60.1975 7.98722Z" fill="white"/>
<path d="M67.7968 22.3877L74.1283 18.3696L75.7371 20.9046C76.0327 21.3704 76.2102 21.8028 76.2696 22.2016C76.329 22.6005 76.2858 22.956 76.14 23.2683C75.9962 23.5793 75.7656 23.8355 75.4482 24.0369C75.2008 24.1939 74.952 24.2824 74.7017 24.3025C74.4534 24.3213 74.2146 24.2821 73.9851 24.1848C73.7591 24.0883 73.5514 23.9455 73.362 23.7563L73.3001 23.7956C73.4429 24.0432 73.5181 24.3121 73.5258 24.6021C73.5348 24.8942 73.4677 25.1781 73.3247 25.4539C73.1838 25.7283 72.9577 25.9643 72.6465 26.1618C72.3106 26.375 71.9577 26.4819 71.5879 26.4824C71.2216 26.4836 70.8594 26.3708 70.5016 26.144C70.1437 25.9172 69.8143 25.5668 69.5135 25.0928L67.7968 22.3877ZM69.7407 23.0318L70.4333 24.1231C70.6701 24.4961 70.9138 24.7231 71.1646 24.8039C71.4174 24.8834 71.6634 24.8473 71.9025 24.6956C72.0776 24.5844 72.2054 24.444 72.2857 24.2745C72.3661 24.105 72.3947 23.9177 72.3715 23.7127C72.3497 23.5097 72.2708 23.301 72.1347 23.0867L71.4225 21.9645L69.7407 23.0318ZM72.3284 21.3896L72.9581 22.382C73.0746 22.5654 73.2098 22.708 73.364 22.8096C73.5215 22.9121 73.6862 22.9666 73.858 22.9731C74.0312 22.9818 74.2013 22.9331 74.3682 22.8272C74.597 22.682 74.7298 22.4835 74.7666 22.2318C74.8047 21.9821 74.7296 21.7088 74.5413 21.412L73.8958 20.3949L72.3284 21.3896Z" fill="white"/>
<path d="M72.3508 31.3703C72.2399 31.0291 72.2003 30.7057 72.2319 30.4003C72.2659 30.0941 72.3749 29.8251 72.5588 29.5934C72.7458 29.3632 73.0158 29.1908 73.3686 29.0761C73.6658 28.9796 73.9331 28.953 74.1705 28.9965C74.408 29.04 74.6187 29.1358 74.8029 29.2839C74.987 29.4319 75.1493 29.6153 75.2897 29.8341C75.4308 30.0552 75.5571 30.2939 75.6687 30.5502C75.8022 30.8508 75.9139 31.0917 76.0036 31.273C76.0956 31.4536 76.1846 31.5774 76.2706 31.6444C76.3565 31.7115 76.4564 31.7265 76.5701 31.6895L76.591 31.6827C76.8116 31.6111 76.9596 31.486 77.035 31.3075C77.1112 31.1313 77.1082 30.9167 77.026 30.6636C76.9393 30.3966 76.8111 30.2034 76.6414 30.084C76.474 29.9639 76.2938 29.9069 76.1008 29.9132L75.7664 28.505C76.114 28.469 76.4395 28.5147 76.7426 28.6421C77.0481 28.7687 77.3171 28.9726 77.5497 29.2538C77.7853 29.5365 77.9725 29.8915 78.1113 30.3187C78.2078 30.6158 78.2654 30.9115 78.284 31.2058C78.3034 31.5024 78.2743 31.7801 78.1967 32.0388C78.1198 32.2999 77.9864 32.5294 77.7966 32.7271C77.6091 32.924 77.3563 33.0742 77.0382 33.1775L73.4305 34.3497L72.9734 32.9429L73.7151 32.7019L73.7015 32.6601C73.5065 32.6285 73.3217 32.5615 73.1473 32.459C72.9751 32.3558 72.8203 32.2149 72.6827 32.0363C72.5474 31.857 72.4368 31.635 72.3508 31.3703ZM73.5126 31.4625C73.5835 31.6808 73.6891 31.8595 73.8293 31.9987C73.9718 32.1372 74.1329 32.2299 74.3124 32.2768C74.4919 32.3237 74.6756 32.3166 74.8637 32.2555L75.4313 32.0711C75.386 32.0345 75.3374 31.9797 75.2855 31.9067C75.2366 31.8353 75.1855 31.7531 75.1322 31.6601C75.0812 31.5663 75.0314 31.4721 74.9827 31.3776C74.9363 31.2823 74.8941 31.1959 74.8561 31.1184C74.774 30.9526 74.684 30.8137 74.586 30.7018C74.488 30.5899 74.3798 30.5134 74.2612 30.4724C74.145 30.4306 74.0172 30.4323 73.8779 30.4776C73.6759 30.5432 73.5453 30.6665 73.486 30.8475C73.4298 31.03 73.4387 31.235 73.5126 31.4625Z" fill="white"/>
<path d="M79.8576 41.6378L78.6883 41.7113L78.4756 38.3311L79.645 38.2575L79.8576 41.6378ZM81.038 38.9403L81.136 40.4971L75.903 40.8263C75.7593 40.8353 75.6486 40.8643 75.5709 40.9132C75.4957 40.962 75.4448 41.0263 75.418 41.1063C75.3914 41.1887 75.3814 41.2823 75.388 41.387C75.3926 41.4601 75.4033 41.5328 75.42 41.6051C75.4392 41.6773 75.4537 41.7326 75.4635 41.7711L74.3205 42.0889C74.2912 42.0124 74.2563 41.9046 74.2157 41.7653C74.1727 41.6261 74.1412 41.4557 74.1212 41.2539C74.083 40.8797 74.1122 40.5476 74.2089 40.2578C74.3058 39.9705 74.4699 39.7412 74.7013 39.5701C74.9327 39.399 75.2324 39.3031 75.6004 39.2824L81.038 38.9403Z" fill="white"/>
<path d="M73.5895 46.9815C73.6567 46.629 73.7778 46.3266 73.9526 46.0742C74.1299 45.8222 74.355 45.639 74.6278 45.5245C74.9026 45.4129 75.2222 45.3919 75.5866 45.4614C75.8936 45.52 76.1406 45.6255 76.3277 45.778C76.5148 45.9305 76.6534 46.116 76.7434 46.3344C76.8334 46.5529 76.8873 46.7918 76.9049 47.0511C76.9221 47.3128 76.9178 47.5829 76.892 47.8613C76.8643 48.189 76.846 48.4539 76.8373 48.656C76.831 48.8585 76.8493 49.0099 76.8923 49.1101C76.9354 49.2102 77.0156 49.2715 77.1331 49.2939L77.1547 49.298C77.3825 49.3415 77.5724 49.3032 77.7246 49.1831C77.8762 49.0654 77.977 48.8759 78.0269 48.6145C78.0795 48.3388 78.0602 48.1077 77.969 47.9213C77.8802 47.7354 77.7497 47.5987 77.5776 47.5112L77.963 46.116C78.2849 46.252 78.5481 46.4488 78.7524 46.7065C78.9591 46.9646 79.0966 47.2729 79.1649 47.6313C79.2352 47.9926 79.2282 48.3939 79.1441 48.8351C79.0855 49.142 78.9935 49.4289 78.8681 49.6957C78.7422 49.9649 78.5829 50.1942 78.3902 50.3836C78.197 50.5754 77.9697 50.7122 77.708 50.794C77.4488 50.8762 77.1549 50.886 76.8264 50.8233L73.1003 50.1125L73.3775 48.6595L74.1436 48.8056L74.1518 48.7625C73.9961 48.6408 73.8665 48.4931 73.7629 48.3193C73.6618 48.1459 73.594 47.9478 73.5594 47.725C73.5273 47.5027 73.5373 47.2549 73.5895 46.9815ZM74.5632 47.622C74.5202 47.8474 74.5266 48.0549 74.5824 48.2445C74.6405 48.4345 74.737 48.5933 74.8717 48.7209C75.0064 48.8485 75.1709 48.9308 75.3651 48.9678L75.9513 49.0797C75.9293 49.0258 75.9131 48.9543 75.9028 48.8654C75.8943 48.7793 75.8892 48.6826 75.8872 48.5754C75.8877 48.4686 75.8894 48.3621 75.8923 48.2558C75.8976 48.1499 75.9022 48.0539 75.9063 47.9677C75.9142 47.7828 75.9022 47.6178 75.8703 47.4725C75.8383 47.3273 75.7803 47.2081 75.6962 47.115C75.6144 47.0224 75.5016 46.9623 75.3578 46.9349C75.1491 46.8951 74.9753 46.9402 74.8362 47.0702C74.699 47.2031 74.608 47.387 74.5632 47.622Z" fill="white"/>
<path d="M69.009 54.3606C69.2241 53.9034 69.4715 53.541 69.7513 53.2734C70.0277 53.0069 70.3183 52.828 70.623 52.7366C70.9276 52.6453 71.2271 52.6338 71.5214 52.7021L71.0827 54.0901C70.9624 54.082 70.8378 54.1003 70.7089 54.1449C70.5801 54.1894 70.4559 54.2699 70.3363 54.3863C70.2136 54.5039 70.1038 54.6654 70.0072 54.8708C69.8627 55.1778 69.8188 55.4661 69.8755 55.7355C69.9289 56.0061 70.13 56.2236 70.479 56.3878L71.41 56.8259L71.4381 56.7662C71.3258 56.6379 71.2358 56.4822 71.1681 56.2993C71.1004 56.1164 71.0726 55.909 71.0845 55.6772C71.0965 55.4454 71.1658 55.1948 71.2926 54.9254C71.4724 54.5433 71.7245 54.237 72.0488 54.0065C72.3742 53.7792 72.7639 53.6591 73.2179 53.6461C73.673 53.6363 74.1822 53.764 74.7454 54.029C75.3219 54.3003 75.7592 54.6207 76.0574 54.9904C76.3555 55.36 76.5274 55.7457 76.5731 56.1476C76.6176 56.5516 76.5521 56.9403 76.3764 57.3136C76.2424 57.5985 76.0815 57.8142 75.8939 57.9606C75.7085 58.1081 75.5165 58.2065 75.3178 58.256C75.1204 58.3088 74.9381 58.335 74.771 58.3346L74.7461 58.3876L75.6008 58.7898L74.9414 60.1913L69.8028 57.7732C69.3699 57.5695 69.0576 57.2931 68.8658 56.9438C68.674 56.5946 68.5936 56.1979 68.6245 55.7539C68.6522 55.311 68.7803 54.8465 69.009 54.3606ZM72.1424 55.8715C72.0353 56.099 72.0012 56.3177 72.0401 56.5275C72.0801 56.7406 72.1864 56.939 72.3589 57.1227C72.5326 57.3096 72.7685 57.4732 73.0667 57.6136C73.3649 57.7539 73.6431 57.8335 73.9012 57.8525C74.1616 57.8725 74.3899 57.8315 74.5862 57.7297C74.7826 57.6278 74.9342 57.4631 75.0413 57.2356C75.1504 57.0037 75.1794 56.7786 75.1284 56.5604C75.0795 56.3431 74.9639 56.1417 74.7815 55.956C74.5991 55.7704 74.3632 55.6095 74.0738 55.4733C73.7801 55.3351 73.5069 55.2564 73.2542 55.2373C73.0026 55.2215 72.7814 55.2644 72.5906 55.3662C72.4009 55.4711 72.2515 55.6396 72.1424 55.8715Z" fill="white"/>
<path d="M67.8783 60.5485L72.2118 64.1335L71.2175 65.3353L66.8841 61.7504L67.8783 60.5485ZM72.271 65.1994C72.4188 65.0207 72.6048 64.9164 72.8291 64.8865C73.0538 64.8601 73.2498 64.9161 73.4172 65.0546C73.5827 65.1915 73.6726 65.372 73.6868 65.5961C73.7014 65.8235 73.6347 66.0266 73.4869 66.2053C73.3391 66.384 73.1529 66.4865 72.9283 66.513C72.704 66.5428 72.5091 66.4893 72.3435 66.3524C72.1761 66.2139 72.0852 66.0309 72.0706 65.8034C72.0563 65.5794 72.1231 65.378 72.271 65.1994Z" fill="white"/>
<path d="M60.7411 67.2933C61.2013 66.959 61.6702 66.7677 62.148 66.7192C62.6252 66.6742 63.0824 66.7615 63.5195 66.981C63.958 67.2025 64.3465 67.5463 64.6851 68.0124C65.0266 68.4824 65.2342 68.9591 65.3079 69.4427C65.3831 69.9282 65.3248 70.3899 65.1331 70.8279C64.9409 71.2693 64.6147 71.6571 64.1545 71.9915C63.6944 72.3258 63.2257 72.5154 62.7485 72.5604C62.2707 72.6088 61.8126 72.5223 61.3741 72.3008C60.937 72.0813 60.5477 71.7365 60.2062 71.2665C59.8676 70.8004 59.6607 70.3246 59.5856 69.8392C59.5119 69.3556 59.5711 68.8932 59.7634 68.4518C59.9551 68.0138 60.281 67.6276 60.7411 67.2933ZM61.4454 68.2752C61.2361 68.4273 61.1044 68.6135 61.0503 68.8338C60.9976 69.0562 61.011 69.2969 61.0906 69.5559C61.1681 69.8163 61.3031 70.0788 61.4953 70.3435C61.6876 70.6081 61.8956 70.8175 62.1193 70.9718C62.3411 71.1275 62.5658 71.2147 62.7935 71.2333C63.0213 71.2519 63.2398 71.1851 63.4491 71.033C63.6605 70.8795 63.7944 70.6901 63.8511 70.4649C63.9057 70.2412 63.8943 69.9991 63.8167 69.7386C63.7371 69.4796 63.6012 69.2178 63.409 68.9531C63.2167 68.6885 63.0097 68.4784 62.7879 68.3226C62.5642 68.1684 62.3375 68.0827 62.1078 68.0655C61.8775 68.0518 61.6568 68.1216 61.4454 68.2752Z" fill="white"/>
<path d="M54.0451 77.0661L53.6138 75.9767L56.7629 74.7299L57.1942 75.8193L54.0451 77.0661ZM56.9753 77.3552L55.525 77.9294L53.5948 73.0543C53.5418 72.9204 53.4801 72.8241 53.4096 72.7653C53.34 72.7089 53.263 72.6803 53.1787 72.6795C53.0921 72.6797 53 72.6991 52.9024 72.7377C52.8343 72.7647 52.7685 72.7973 52.7049 72.8356C52.6422 72.8762 52.594 72.9071 52.5604 72.9282L51.905 71.9394C51.9687 71.8879 52.0605 71.8214 52.1804 71.7397C52.2995 71.6558 52.4519 71.5732 52.6376 71.4918C52.9817 71.3398 53.3065 71.265 53.612 71.2675C53.9152 71.2708 54.184 71.356 54.4182 71.5232C54.6524 71.6904 54.8362 71.9458 54.9696 72.2894L56.9753 77.3552Z" fill="white"/>
<path d="M48.0384 72.7348L48.7433 78.3146L47.1958 78.51L46.4909 72.9303L48.0384 72.7348ZM48.0568 79.132C48.2869 79.103 48.4939 79.1543 48.6778 79.2861C48.8597 79.4206 48.9642 79.5956 48.9914 79.8111C49.0184 80.0243 48.9603 80.2173 48.8173 80.3904C48.6722 80.5662 48.4847 80.6686 48.2546 80.6977C48.0245 80.7268 47.8186 80.6741 47.6367 80.5396C47.4528 80.4078 47.3473 80.2354 47.3204 80.0222C47.2932 79.8067 47.3521 79.611 47.4972 79.4352C47.6402 79.2622 47.8267 79.1611 48.0568 79.132Z" fill="white"/>
<g clip-path="url(#clip0_113_541)">
<path d="M52.3265 42.8483L51.628 43.539M41.3198 51.306L32.7787 42.8496C32.1349 42.2221 31.6278 41.4681 31.2895 40.6351C30.9512 39.8022 30.7889 38.9082 30.8129 38.0094C30.8368 37.1106 31.0466 36.2266 31.4288 35.4128C31.8111 34.599 32.3576 33.8732 33.034 33.2809C33.7105 32.6886 34.5021 32.2428 35.3593 31.9713C36.2164 31.6999 37.1204 31.6088 38.0145 31.7037C38.9085 31.7986 39.7732 32.0775 40.5543 32.5229C41.3353 32.9683 42.0157 33.5705 42.5526 34.2916C43.0915 33.5749 43.7726 32.9771 44.5531 32.5357C45.3337 32.0943 46.197 31.8187 47.0889 31.7263C47.9809 31.6339 48.8823 31.7265 49.7368 31.9985C50.5913 32.2705 51.3804 32.7159 52.0549 33.3069C52.7293 33.8978 53.2745 34.6217 53.6563 35.433C54.0381 36.2444 54.2484 37.1259 54.2739 38.0222C54.2994 38.9186 54.1396 39.8106 53.8045 40.6423C53.4694 41.4741 52.9663 42.2278 52.3265 42.8561" stroke="white" stroke-width="2.59746" stroke-linecap="round" stroke-linejoin="round"/>
<path d="M52.9785 53.8315L55.5849 51.2252L52.9785 48.6188" stroke="white" stroke-width="2.59746" stroke-linecap="round" stroke-linejoin="round"/>
<path d="M49.0683 48.6188L46.4619 51.2252L49.0683 53.8315" stroke="white" stroke-width="2.59746" stroke-linecap="round" stroke-linejoin="round"/>
</g>
<defs>
<clipPath id="clip0_113_541">
<rect width="31.2764" height="31.2764" fill="white" transform="translate(26.915 26.4647)"/>
</clipPath>
</defs>
</svg>
