<svg width="106" height="101" viewBox="0 0 106 101" fill="none" xmlns="http://www.w3.org/2000/svg">
<path d="M0 50.3186C0 58.8022 7.80178 66.722 20.1019 71.186C17.6457 84.3159 19.6617 94.8985 26.3955 99.0221C33.3171 103.26 43.6286 100.327 53.4155 91.2428C62.9556 99.9599 72.5975 103.39 79.325 99.2552C86.2399 95.0046 88.3432 83.7043 85.819 70.1645C98.6303 65.667 105.797 58.9139 105.797 50.3186C105.797 42.0317 97.9803 34.8624 85.846 30.4269C88.5634 16.3276 86.2609 6.00182 79.2484 1.70792C72.4877 -2.43166 62.7338 1.17641 53.0534 10.1218C42.9826 0.626974 33.325 -2.27192 26.3193 2.03449C19.5651 6.18585 17.6378 16.9608 20.1019 30.3337C8.21711 34.7336 0 42.0648 0 50.3186Z" fill="white"/>
<path d="M83.2748 34.8314C82.3001 34.4752 81.2901 34.1381 80.2502 33.8194C80.4212 33.0787 80.578 32.3476 80.7175 31.6289C83.007 19.8281 81.5101 10.3214 76.3983 7.19133C71.4968 4.19004 63.4807 7.31937 55.3849 14.8005C54.6064 15.5199 53.8257 16.2815 53.0453 17.0797C52.5254 16.5516 52.0063 16.0412 51.4885 15.5531C43.0038 7.55377 34.4992 4.18276 29.3925 7.32185C24.4956 10.3318 23.0455 19.2691 25.1064 30.4528C25.3054 31.533 25.5381 32.6361 25.8011 33.7577C24.5975 34.1205 23.4355 34.5073 22.3237 34.9188C12.3763 38.6012 6.02344 44.3726 6.02344 50.359C6.02344 56.5419 12.8432 62.7433 23.2042 66.5036C24.0218 66.8003 24.8703 67.0809 25.7446 67.3473C25.4608 68.5603 25.2139 69.749 25.0067 70.9085C23.0416 81.898 24.5762 90.6242 29.46 93.6152C34.5046 96.704 42.9707 93.529 51.2145 85.8774C51.8661 85.2726 52.52 84.6312 53.1751 83.9589C54.0242 84.8271 54.8719 85.6487 55.7152 86.4194C63.7003 93.7157 71.5869 96.6619 76.4662 93.6626C81.5057 90.5649 83.1435 81.1909 81.0172 69.786C80.8548 68.915 80.6658 68.0251 80.4536 67.1194C81.0481 66.9328 81.6318 66.7401 82.2009 66.5398C92.9722 62.7504 99.9803 56.6244 99.9803 50.359C99.9803 44.3509 93.4225 38.5407 83.2748 34.8314Z" fill="#0029FF"/>
<path d="M80.9386 62.4946C80.4249 62.6752 79.8977 62.8498 79.3605 63.019C78.1715 59.0218 76.5666 54.7714 74.6027 50.3801C76.4768 46.0933 78.0196 41.8972 79.1754 37.926C80.1365 38.2213 81.0694 38.5328 81.9683 38.8615C90.6629 42.0396 95.9665 46.7386 95.9665 50.3593C95.9665 54.216 90.2388 59.2225 80.9386 62.4946ZM77.0797 70.6139C78.0199 75.657 78.1542 80.2166 77.5314 83.781C76.9718 86.9838 75.8465 89.1192 74.455 89.9745C71.494 91.7943 65.1619 89.4288 58.3329 83.1889C57.55 82.4736 56.7615 81.7099 55.9704 80.9015C58.6179 77.8271 61.2638 74.2529 63.8462 70.2835C68.3883 69.8555 72.6796 69.1558 76.5711 68.2006C76.7628 69.0216 76.933 69.8267 77.0797 70.6139ZM38.0555 89.66C35.1625 90.7448 32.8584 90.7759 31.4656 89.9231C28.502 88.1081 27.2699 81.1018 28.9505 71.7036C29.143 70.6272 29.3721 69.5216 29.6362 68.3915C33.4851 69.2952 37.7449 69.9455 42.2979 70.3374C44.8977 74.2217 47.62 77.7919 50.3635 80.918C49.7641 81.5325 49.167 82.1174 48.5733 82.6686C44.9279 86.0521 41.2749 88.4526 38.0555 89.66ZM24.5024 62.471C19.9209 60.8083 16.1374 58.6473 13.544 56.2892C11.2137 54.1702 10.0371 52.0664 10.0371 50.3593C10.0371 46.7265 15.1378 42.0929 23.6449 38.9435C24.6771 38.5614 25.7577 38.2012 26.879 37.8629C28.0547 41.9238 29.597 46.1696 31.4583 50.463C29.573 54.8201 28.0088 59.1335 26.8215 63.242C26.0221 62.998 25.2476 62.7413 24.5024 62.471ZM29.0455 29.6346C27.2797 20.0527 28.4524 12.8244 31.4034 11.0106C34.5467 9.07838 41.4975 11.8334 48.8233 18.7404C49.2916 19.1818 49.7617 19.6439 50.2332 20.1219C47.5033 23.2344 44.8059 26.7778 42.2292 30.6391C37.8103 31.074 33.5804 31.7726 29.6914 32.7081C29.4469 31.6638 29.2303 30.6377 29.0455 29.6346ZM69.5742 40.2608C68.6445 38.5557 67.6901 36.8909 66.7171 35.2715C69.7149 35.6739 72.5871 36.2081 75.2844 36.8617C74.4746 39.6174 73.4653 42.4987 72.2772 45.4524C71.4249 43.7343 70.5235 42.002 69.5742 40.2608ZM53.0467 23.1678C54.8981 25.2975 56.7521 27.6753 58.5757 30.2552C56.7381 30.163 54.8777 30.1151 53.0019 30.1151C51.1438 30.1151 49.2971 30.162 47.4709 30.2525C49.2963 27.6966 51.1664 25.322 53.0467 23.1678ZM36.4133 40.2903C35.4846 42.0002 34.5999 43.7231 33.761 45.4492C32.5922 42.5058 31.5922 39.6114 30.7754 36.8166C33.4562 36.1796 36.3148 35.6588 39.2936 35.264C38.3068 36.8983 37.3445 38.5754 36.4133 40.2899V40.2903ZM39.3794 65.7585C36.3018 65.394 33.4001 64.8999 30.7201 64.2805C31.5499 61.4359 32.5719 58.4797 33.7656 55.4729C34.6066 57.1977 35.4948 58.9213 36.4292 60.635H36.4294C37.3812 62.3808 38.3672 64.0909 39.3794 65.7585ZM53.1577 77.8512C51.2554 75.6718 49.3578 73.2609 47.5046 70.6677C49.3037 70.7427 51.1378 70.781 53.0019 70.781C54.917 70.781 56.8102 70.7352 58.6736 70.6471C56.8439 73.287 54.9966 75.7016 53.1577 77.8512ZM72.3155 55.3196C73.5713 58.3589 74.6299 61.2997 75.4705 64.0958C72.7463 64.7557 69.805 65.2872 66.706 65.6822C67.6814 64.041 68.6442 62.3476 69.5903 60.6057C70.5474 58.8434 71.4562 57.0784 72.3155 55.3196ZM66.1135 58.4765C64.6448 61.1805 63.1369 63.7618 61.6061 66.1984C58.8181 66.4101 55.9376 66.5191 53.0019 66.5191C50.078 66.5191 47.2339 66.4227 44.4951 66.2339C42.9026 63.7654 41.362 61.1764 39.9027 58.4997H39.903C38.4475 55.8304 37.1079 53.1384 35.894 50.4616C37.1075 47.7785 38.4436 45.0835 39.8908 42.4189L39.8905 42.4195C41.3414 39.7478 42.8685 37.1714 44.4463 34.7183C47.2406 34.4941 50.1059 34.377 53.0017 34.377H53.0019C55.9107 34.377 58.7798 34.4949 61.5732 34.7212C63.1269 37.1563 64.6436 39.7243 66.1003 42.3964C67.5735 45.0985 68.9268 47.7755 70.1507 50.401C68.9305 53.0716 67.5802 55.7757 66.1135 58.4765ZM74.3935 10.8838C77.5398 12.8104 78.7633 20.5803 76.7865 30.7689C76.6604 31.4191 76.5184 32.0813 76.3642 32.7523C72.4662 31.7973 68.2333 31.0866 63.8015 30.6452C61.2198 26.7414 58.5444 23.1925 55.859 20.12C56.581 19.3825 57.302 18.6793 58.02 18.0156C64.9565 11.6059 71.4396 9.07518 74.3935 10.8838Z" fill="white"/>
<path d="M53.0033 41.4507C57.6369 41.4507 61.3933 45.4391 61.3933 50.3594C61.3933 55.2794 57.6369 59.2681 53.0033 59.2681C48.3697 59.2681 44.6133 55.2794 44.6133 50.3594C44.6133 45.4391 48.3697 41.4507 53.0033 41.4507Z" fill="#0029FF"/>
</svg>
